<?xml version="1.0" encoding="UTF-8" standalone="no"?><!DOCTYPE svg PUBLIC "-//W3C//DTD SVG 1.1//EN" "http://www.w3.org/Graphics/SVG/1.1/DTD/svg11.dtd"><svg width="100%" height="100%" viewBox="0 0 2084 834" version="1.1" xmlns="http://www.w3.org/2000/svg" xmlns:xlink="http://www.w3.org/1999/xlink" xml:space="preserve" xmlns:serif="http://www.serif.com/" style="fill-rule:evenodd;clip-rule:evenodd;stroke-linejoin:round;stroke-miterlimit:1.41421;"><g id="Row-1" serif:id="Row 1"><rect x="0" y="87.5" width="208.333" height="33.333" style="fill:#b9b9b9;"/><path d="M329.167,208.333l0,-208.333l-33.334,0l0,208.333l33.334,0Z" style="fill:#b9b9b9;"/><rect x="416.667" y="87.5" width="104.167" height="33.333" style="fill:#b9b9b9;"/><rect x="729.167" y="87.5" width="104.167" height="33.333" style="fill:#b9b9b9;"/><path d="M954.167,208.333l0,-104.166l-33.334,0l0,104.166l33.334,0Z" style="fill:#b9b9b9;"/><path d="M1162.5,104.167l0,-104.167l-33.333,0l0,104.167l33.333,0Z" style="fill:#b9b9b9;"/><path d="M120.833,208.333c-0.001,66.691 -54.143,120.833 -120.833,120.834l0,-33.334c48.292,0 87.499,-39.206 87.5,-87.5l33.333,0Z" style="fill:#b9b9b9;"/><rect x="0" y="504.167" width="208.333" height="33.333" style="fill:#b9b9b9;"/><path d="M120.833,416.667c-0.001,66.69 -54.143,120.833 -120.833,120.833l0,-33.333c48.292,0 87.499,-39.207 87.5,-87.5l33.333,0Z" style="fill:#b9b9b9;"/><rect x="416.667" y="504.167" width="208.333" height="33.333" style="fill:#b9b9b9;"/><path d="M504.167,416.667c0.001,66.69 54.143,120.833 120.833,120.833l0,-33.333c-48.292,0 -87.499,-39.207 -87.5,-87.5l-33.333,0Z" style="fill:#b9b9b9;"/><rect x="625" y="504.167" width="208.333" height="33.333" style="fill:#b9b9b9;"/><path d="M712.5,625c0.001,-66.69 54.144,-120.833 120.833,-120.833l0,33.333c-48.292,0 -87.499,39.207 -87.5,87.5l-33.333,0Z" style="fill:#b9b9b9;"/><rect x="208.333" y="504.167" width="208.333" height="33.333" style="fill:#b9b9b9;"/><path d="M329.167,625c-0.001,-66.69 -54.144,-120.833 -120.834,-120.833l0,33.333c48.293,0 87.5,39.207 87.5,87.5l33.334,0Z" style="fill:#b9b9b9;"/><rect x="0" y="712.5" width="208.333" height="33.333" style="fill:#b9b9b9;"/><path d="M120.833,625c-0.001,66.69 -54.143,120.833 -120.833,120.833l0,-33.333c48.292,0 87.499,-39.207 87.5,-87.5l33.333,0Z" style="fill:#b9b9b9;"/><path d="M208.333,295.833c66.691,0.001 120.833,54.144 120.834,120.834l-33.334,0c0,-48.293 -39.206,-87.5 -87.5,-87.5l0,-33.334Z" style="fill:#b9b9b9;"/><path d="M0,712.5c66.69,0.001 120.833,54.144 120.833,120.833l-33.333,0c0,-48.292 -39.207,-87.499 -87.5,-87.5l0,-33.333Z" style="fill:#b9b9b9;"/><rect x="208.333" y="712.5" width="208.333" height="33.333" style="fill:#b9b9b9;"/><path d="M295.833,833.333c0.001,-66.69 54.144,-120.833 120.834,-120.833l0,33.333c-48.293,0 -87.5,39.207 -87.5,87.5l-33.334,0Z" style="fill:#b9b9b9;"/><path d="M416.667,745.833c-66.691,-0.001 -120.833,-54.143 -120.834,-120.833l33.334,0c0,48.292 39.206,87.499 87.5,87.5l0,33.333Z" style="fill:#b9b9b9;"/><path d="M625,329.167c-66.69,-0.001 -120.833,-54.144 -120.833,-120.834l33.333,0c0,48.293 39.207,87.5 87.5,87.5l0,33.334Z" style="fill:#b9b9b9;"/><path d="M712.5,416.667c0.001,-66.691 54.144,-120.833 120.833,-120.834l0,33.334c-48.292,0 -87.499,39.206 -87.5,87.5l-33.333,0Z" style="fill:#b9b9b9;"/></g></svg>